<?xml version="1.0" ?><svg id="Layer_1" style="enable-background:new 0 0 512 512;" version="1.1" viewBox="0 0 512 512" xml:space="preserve" xmlns="http://www.w3.org/2000/svg" xmlns:xlink="http://www.w3.org/1999/xlink"><path d="M187.85275,329.77225c1.43924,0,2.87924-0.54898,3.97723-1.647l52.74976-52.74976  C247.93001,277.35773,251.83301,278.5,256,278.5c5.69101,0,10.89227-2.12851,14.85825-5.625H341.125  c9.30527,0,16.875-7.5705,16.875-16.875s-7.56973-16.875-16.875-16.875h-68.25v-90.75c0-9.3045-7.56973-16.875-16.875-16.875  s-16.875,7.5705-16.875,16.875v92.76675c-3.49651,3.96674-5.625,9.16724-5.625,14.85825c0,4.16699,1.14224,8.07001,3.1245,11.42023  l-52.74974,52.74976c-2.19675,2.19751-2.19675,5.75851,0,7.95526C184.97351,329.22327,186.41275,329.77225,187.85275,329.77225z   M277.78824,250.375H341.125c3.10199,0,5.625,2.52299,5.625,5.625c0,3.10199-2.52301,5.625-5.625,5.625h-63.33676  C278.2525,259.82648,278.5,257.94174,278.5,256S278.2525,252.17349,277.78824,250.375z M250.375,148.375  c0-3.10201,2.52299-5.625,5.625-5.625c3.10199,0,5.625,2.52299,5.625,5.625v85.83676C259.82648,233.7475,257.94174,233.5,256,233.5  s-3.82651,0.2475-5.625,0.71176V148.375z M256,244.75c6.20325,0,11.25,5.04675,11.25,11.25s-5.04675,11.25-11.25,11.25  s-11.25-5.04675-11.25-11.25S249.79675,244.75,256,244.75z M256,403c81.05627,0,147-65.94373,147-147s-65.94373-147-147-147  s-147,65.94376-147,147S174.94376,403,256,403z M256,120.25c74.85303,0,135.75,60.897,135.75,135.75S330.85303,391.75,256,391.75  S120.25,330.853,120.25,256S181.147,120.25,256,120.25z M448,256c0,51.285-19.97174,99.50101-56.23499,135.76498  C355.50024,428.02826,307.285,448,256,448s-99.50024-19.97174-135.765-56.23499C83.97175,355.50101,64,307.285,64,256  c0-46.97174,17.1525-92.187,48.29774-127.31549c2.06026-2.325,5.61525-2.538,7.94025-0.47775  c2.32425,2.061,2.53801,5.616,0.47701,7.94099C91.39675,169.21675,75.25,211.78075,75.25,256  c0,99.66602,81.084,180.75,180.75,180.75S436.75,355.66602,436.75,256S355.66602,75.25,256,75.25  c-44.21925,0-86.78325,16.14675-119.85225,45.46575c-2.325,2.061-5.88,1.84725-7.94025-0.47775  c-2.061-2.325-1.84725-5.88,0.47701-7.94099C163.813,81.1525,209.02826,64,256,64c51.285,0,99.50024,19.97175,135.76498,56.235  C428.02826,156.49899,448,204.715,448,256z"/></svg>