<?xml version="1.0" ?><svg id="Layer_1" style="enable-background:new 0 0 512 512;" version="1.1" viewBox="0 0 512 512" xml:space="preserve" xmlns="http://www.w3.org/2000/svg" xmlns:xlink="http://www.w3.org/1999/xlink"><path d="M374.87537,324.25c-27.91498,0-50.625,22.70999-50.625,50.625s22.71002,50.625,50.625,50.625  c27.91501,0,50.625-22.70999,50.625-50.625S402.79037,324.25,374.87537,324.25z M374.87537,414.25  c-21.711,0-39.375-17.66324-39.375-39.375s17.664-39.375,39.375-39.375s39.375,17.66324,39.375,39.375  S396.58636,414.25,374.87537,414.25z M374.87537,346.75c-15.50848,0-28.125,12.61649-28.125,28.125S359.36688,403,374.87537,403  c15.50851,0,28.125-12.61649,28.125-28.125S390.38388,346.75,374.87537,346.75z M374.87537,391.75  c-9.3045,0-16.875-7.56973-16.875-16.875s7.5705-16.875,16.875-16.875s16.875,7.56973,16.875,16.875  S384.17987,391.75,374.87537,391.75z M251.12538,380.5c-9.3045,0-16.875,7.56973-16.875,16.875s7.5705,16.875,16.875,16.875  c9.30449,0,16.87498-7.56973,16.87498-16.875S260.42987,380.5,251.12538,380.5z M251.12538,403  c-3.10201,0-5.625-2.52301-5.625-5.625s2.52299-5.625,5.625-5.625c3.10199,0,5.62498,2.52301,5.62498,5.625  S254.22737,403,251.12538,403z M251.12538,335.5c-9.3045,0-16.875,7.56973-16.875,16.875s7.5705,16.875,16.875,16.875  c9.30449,0,16.87498-7.56973,16.87498-16.875S260.42987,335.5,251.12538,335.5z M251.12538,358  c-3.10201,0-5.625-2.52301-5.625-5.625s2.52299-5.625,5.625-5.625c3.10199,0,5.62498,2.52301,5.62498,5.625  S254.22737,358,251.12538,358z M296.12537,380.5c-9.3045,0-16.875,7.56973-16.875,16.875s7.5705,16.875,16.875,16.875  s16.875-7.56973,16.875-16.875S305.42987,380.5,296.12537,380.5z M296.12537,403c-3.10199,0-5.625-2.52301-5.625-5.625  s2.52301-5.625,5.625-5.625s5.625,2.52301,5.625,5.625S299.22736,403,296.12537,403z M296.12537,335.5  c-9.3045,0-16.875,7.56973-16.875,16.875s7.5705,16.875,16.875,16.875s16.875-7.56973,16.875-16.875  S305.42987,335.5,296.12537,335.5z M296.12537,358c-3.10199,0-5.625-2.52301-5.625-5.625s2.52301-5.625,5.625-5.625  s5.625,2.52301,5.625,5.625S299.22736,358,296.12537,358z M206.12538,380.5c-9.3045,0-16.875,7.56973-16.875,16.875  s7.5705,16.875,16.875,16.875s16.875-7.56973,16.875-16.875S215.42989,380.5,206.12538,380.5z M206.12538,403  c-3.10201,0-5.625-2.52301-5.625-5.625s2.52299-5.625,5.625-5.625c3.10199,0,5.625,2.52301,5.625,5.625S209.22737,403,206.12538,403  z M206.12538,335.5c-9.3045,0-16.875,7.56973-16.875,16.875s7.5705,16.875,16.875,16.875s16.875-7.56973,16.875-16.875  S215.42989,335.5,206.12538,335.5z M206.12538,358c-3.10201,0-5.625-2.52301-5.625-5.625s2.52299-5.625,5.625-5.625  c3.10199,0,5.625,2.52301,5.625,5.625S209.22737,358,206.12538,358z M374.87537,290.5c3.10727,0,5.625-2.51849,5.625-5.625v-33.75  c0-3.10651-2.51773-5.625-5.625-5.625H239.87538c-3.10725,0-5.625,2.51849-5.625,5.625v33.75c0,3.10651,2.51775,5.625,5.625,5.625  H374.87537z M245.50038,256.75h123.74998v22.5H245.50038V256.75z M425.50037,201.06625V193.375  c0-10.8555-4.41599-20.69925-11.5455-27.8295c0.01276-0.01276-89.98724-90.01276-89.98724-90.01276  C316.82462,68.416,306.98087,64,296.12537,64H194.87538c-3.10725,0-5.625,2.5185-5.625,5.625v131.44125  c-11.004,2.24251-19.69125,10.92975-21.93375,21.93375h-12.38176c-2.61299-12.82201-13.97624-22.5-27.55875-22.5h-35.25  c-15.50925,0-28.12576,12.6165-28.12576,28.125v191.25c0,15.50851,12.6165,28.125,28.125,28.125h35.25  c13.5825,0,24.94575-9.67798,27.55875-22.5h12.38174c2.61299,12.82202,13.97624,22.5,27.55875,22.5h225.00002  c15.50848,0,28.125-12.61649,28.125-28.125v-191.25C448.00037,215.0425,438.32239,203.67924,425.50037,201.06625z   M386.53488,154.0105C386.39761,154.009,386.2626,154,386.12537,154h-50.625v-50.625c0-0.13725-0.00897-0.27225-0.0105-0.4095  L386.53488,154.0105z M296.12537,75.25c15.50851,0,28.125,12.6165,28.125,28.125v56.25c0,3.10651,2.51776,5.625,5.625,5.625h56.25  c15.50851,0,28.125,12.6165,28.125,28.125v7.125H200.50038V75.25H296.12537z M155.50038,234.25h11.25v180h-11.25V234.25z   M127.37537,436.75h-35.25c-9.3045,0-16.875-7.56973-16.875-16.875v-191.25c0-9.30525,7.5705-16.875,16.875-16.875h35.25  c9.3045,0,16.87501,7.56975,16.87501,16.875v191.25C144.25038,429.18027,136.67987,436.75,127.37537,436.75z M436.75037,419.875  c0,9.30527-7.5705,16.875-16.875,16.875H194.87538c-9.3045,0-16.875-7.56973-16.875-16.875v-191.25  c0-9.30525,7.5705-16.875,16.875-16.875h224.99998c9.3045,0,16.875,7.56975,16.875,16.875V419.875z M425.50037,228.625v78.75  c0,3.10651-2.51773,5.625-5.625,5.625H194.87538c-3.10651,0-5.62425-2.51776-5.625-5.62347l-0.00975-28.125  c-0.00076-3.10654,2.51624-5.62576,5.625-5.62653c3.10649,0,5.62424,2.517,5.625,5.62347l0.00749,22.50153h213.75224v-67.49998  H200.49812l-0.00749,22.50151c-0.00076,3.10648-2.51926,5.62347-5.62726,5.62347c-3.10651-0.00076-5.6235-2.52002-5.62274-5.62653  l0.00975-28.12497c0.00075-3.10651,2.51849-5.6235,5.625-5.6235h224.99998C422.98264,223,425.50037,225.51849,425.50037,228.625z"/></svg>