<?xml version="1.0" ?><svg id="Text_Message" style="enable-background:new 0 0 512 512;" version="1.1" viewBox="0 0 512 512" xml:space="preserve" xmlns="http://www.w3.org/2000/svg" xmlns:xlink="http://www.w3.org/1999/xlink"><path d="M176.5,86.5c3.1066,0,5.625,2.5184,5.625,5.625s-2.5184,5.625-5.625,5.625s-5.625-2.5184-5.625-5.625  S173.3934,86.5,176.5,86.5z M436.75,152.5v162c0,3.10651-2.51849,5.625-5.625,5.625H235.08025L180.478,374.72726  c-1.07625,1.07623-2.51474,1.64774-3.97874,1.64774c-0.72525,0-1.45575-0.14026-2.15175-0.42825  c-2.10226-0.87076-3.4725-2.922-3.4725-5.19675V152.5c0-3.10651,2.51849-5.625,5.625-5.625h101.25v-54.75  c0-9.30525-7.56973-16.875-16.875-16.875h-34.06351c-6.43274,0-12.21674,3.5745-15.09375,9.3285l-10.062,20.12475  C196.86099,114.29275,187.22125,120.25,176.5,120.25s-20.36101-5.95725-25.155-15.54675L141.28226,84.5785  c-2.87701-5.754-8.66101-9.3285-15.09376-9.3285H103.375c-9.30525,0-16.875,7.56975-16.875,16.875V403h191.25v-66  c0-3.10651,2.51849-5.625,5.625-5.625S289,333.89349,289,337v82.875C289,435.38351,276.38351,448,260.875,448h-157.5  c-15.5085,0-28.125-12.61649-28.125-28.125V92.125C75.25,76.6165,87.8665,64,103.375,64h157.5C276.38351,64,289,76.6165,289,92.125  v54.75h142.125C434.23151,146.875,436.75,149.39349,436.75,152.5z M86.5,414.25v5.625c0,9.30527,7.56975,16.875,16.875,16.875h157.5  c9.30527,0,16.875-7.56973,16.875-16.875v-5.625H86.5z M204.3205,75.25h-55.64325c0.99826,1.3365,1.9005,2.7645,2.66626,4.29675  l10.06274,20.12475c2.877,5.754,8.66101,9.3285,15.09375,9.3285s12.21675-3.5745,15.09375-9.3285l10.062-20.12475  C202.42149,78.01525,203.32375,76.58725,204.3205,75.25z M425.5,158.125H182.125v199.0455l46.64775-46.64777  c1.05449-1.05524,2.4855-1.64774,3.97725-1.64774H425.5V158.125z M215.875,211c0,3.10651,2.51849,5.625,5.625,5.625h164.625  c3.10651,0,5.625-2.51849,5.625-5.625s-2.51849-5.625-5.625-5.625H221.5C218.39349,205.375,215.875,207.89349,215.875,211z   M386.125,250.375H221.5c-3.10651,0-5.625,2.51849-5.625,5.625s2.51849,5.625,5.625,5.625h164.625  c3.10651,0,5.625-2.51849,5.625-5.625S389.23151,250.375,386.125,250.375z M386.125,227.875H221.5  c-3.10651,0-5.625,2.51849-5.625,5.625s2.51849,5.625,5.625,5.625h164.625c3.10651,0,5.625-2.51849,5.625-5.625  S389.23151,227.875,386.125,227.875z"/></svg>