<?xml version="1.0" ?><svg id="Layer_1" style="enable-background:new 0 0 60 60;" version="1.1" viewBox="0 0 60 60" xml:space="preserve" xmlns="http://www.w3.org/2000/svg" xmlns:xlink="http://www.w3.org/1999/xlink"><path d="M50.79,16.65H27.02c-0.68,0-1.31-0.31-1.74-0.85l-3.08-3.93c-0.8-1.02-2.01-1.61-3.31-1.61h-9.7C6.89,10.27,5,12.15,5,14.47  v12.46v18.6c0,2.32,1.89,4.21,4.21,4.21h41.59c2.32,0,4.21-1.89,4.21-4.21v-18.6v-6.08C55,18.54,53.11,16.65,50.79,16.65z M53,45.53  c0,1.22-0.99,2.21-2.21,2.21H9.21C7.99,47.73,7,46.75,7,45.53v-18.6c0-1.22,0.99-2.21,2.21-2.21h6.31c0.55,0,1-0.45,1-1s-0.45-1-1-1  H9.21c-0.81,0-1.56,0.24-2.21,0.64v-8.9c0-1.22,0.99-2.21,2.21-2.21h9.7c0.68,0,1.32,0.31,1.74,0.85l3.08,3.93  c0.8,1.02,2.01,1.61,3.31,1.61h23.77c1.22,0,2.21,0.99,2.21,2.21v2.51c-0.64-0.4-1.39-0.64-2.21-0.64H20.13c-0.55,0-1,0.45-1,1  s0.45,1,1,1h30.67c1.22,0,2.21,0.99,2.21,2.21V45.53z"/><path d="M30.48,27.88c-0.29-0.29-0.71-0.37-1.09-0.22c-0.37,0.15-0.62,0.52-0.62,0.92v9.32c-0.51-0.27-1.09-0.44-1.71-0.44  c-2.04,0-3.71,1.66-3.71,3.71s1.66,3.71,3.71,3.71s3.71-1.66,3.71-3.71V31l4.16,4.16c0.39,0.39,1.02,0.39,1.41,0s0.39-1.02,0-1.41  L30.48,27.88z M27.06,42.88c-0.94,0-1.71-0.77-1.71-1.71s0.76-1.71,1.71-1.71s1.71,0.77,1.71,1.71S28,42.88,27.06,42.88z"/></svg>